<?xml version="1.0" encoding="UTF-8"?>
<svg id="Capa_1" xmlns="http://www.w3.org/2000/svg" version="1.1" viewBox="0 0 29.89 31.85">
  <!-- Generator: Adobe Illustrator 30.0.0, SVG Export Plug-In . SVG Version: 2.1.1 Build 123)  -->
  <defs>
    <style>
      .st0 {
        stroke: #000;
        stroke-miterlimit: 10;
        stroke-width: .22px;
      }
    </style>
  </defs>
  <path class="st0" d="M15.26,29.01v-3.51s.04,0,.05,0c.78-.02,1.56-.04,2.35-.06.33,0,.65-.07.96-.16,1.22-.37,2.09-1.15,2.66-2.27.31-.61.47-1.26.56-1.93.02-.16-.08-.29-.25-.28-.42,0-.83,0-1.25.02-.45.02-.88.13-1.3.29-.57.22-1.08.57-1.55.95-.65.53-1.26,1.1-1.87,1.68-.12.12-.24.23-.38.36v-.08c0-1,0-2,0-3,0-.11.03-.19.11-.28.31-.32.57-.68.75-1.1.11-.27.2-.55.25-.85.01,0,.01.02.02.03.42.6.97,1.06,1.55,1.5.17.13.3.1.38-.09.26-.61.44-1.24.4-1.91,0-.07,0-.14-.02-.22.01,0,.02,0,.03,0,.66.47,1.37.81,2.16.96.21.04.32-.03.33-.24.01-.52-.02-1.04-.17-1.55-.05-.16-.1-.31-.16-.47.12.03.23.06.35.08.44.09.88.13,1.33.15.17,0,.34,0,.51-.01.12,0,.19-.11.16-.23-.15-.54-.36-1.06-.71-1.51-.11-.14-.23-.28-.35-.43.1-.01.2-.02.3-.03.55-.08,1.07-.27,1.57-.52.18-.09.2-.2.08-.35-.13-.17-.26-.33-.4-.49-.34-.4-.72-.72-1.19-.96-.05-.03-.11-.05-.17-.09.51-.19.95-.46,1.36-.78.2-.15.39-.31.58-.48.12-.1.11-.23-.01-.32-.04-.03-.09-.06-.13-.09-.45-.29-.93-.54-1.46-.66-.14-.03-.28-.06-.44-.1.03-.02.05-.03.07-.05.22-.21.41-.44.58-.69.2-.32.35-.67.48-1.03.06-.18.03-.27-.16-.32-.29-.08-.58-.16-.87-.21-.38-.07-.77-.08-1.16-.01-.12.02-.24.05-.37.07.21-.46.32-.93.38-1.42.03-.31.03-.61,0-.92-.02-.13-.11-.2-.24-.18-.13.02-.27.03-.4.06-.53.09-1.05.25-1.52.52-.06.03-.11.07-.18.11.01-.14.03-.27.03-.39.01-.46-.07-.91-.21-1.35-.06-.2-.13-.4-.21-.6-.05-.13-.14-.17-.27-.13-.06.02-.11.04-.17.07-.49.21-.96.46-1.34.84-.16.16-.29.33-.44.49,0,0,0-.02-.01-.03-.21-.72-.63-1.32-1.12-1.86-.1-.11-.22-.11-.32,0-.38.41-.73.84-.96,1.36-.08.18-.14.37-.22.55-.02-.02-.04-.05-.06-.08-.48-.65-1.13-1.06-1.87-1.33-.13-.05-.22,0-.27.12-.05.13-.1.27-.15.41-.13.38-.24.77-.26,1.17-.01.25,0,.51,0,.76,0,0-.02,0-.03-.02-.26-.12-.51-.26-.77-.37-.42-.17-.86-.24-1.31-.29-.13-.01-.22.07-.24.2-.07.62,0,1.22.18,1.81.05.17.12.34.18.52-.02,0-.03,0-.05-.01-.27-.08-.55-.11-.83-.11-.33,0-.65.04-.97.12-.19.05-.37.1-.56.16-.14.05-.18.13-.14.27.01.04.03.09.05.13.21.63.52,1.2,1.02,1.64.01,0,.02.02.02.02-.26.07-.52.13-.77.22-.43.15-.82.37-1.2.62-.16.1-.16.24-.03.36.08.07.15.14.23.2.44.38.92.71,1.46.94.07.03.14.06.23.1-.47.21-.88.5-1.22.88-.19.22-.37.45-.55.67-.1.13-.07.25.08.33.04.02.09.05.13.07.46.22.93.39,1.44.45.11.01.21.03.33.04-.07.09-.14.16-.21.24-.41.48-.67,1.04-.84,1.64-.05.18.02.29.22.3.57.01,1.13-.02,1.69-.13.14-.03.29-.06.43-.1-.04.12-.09.24-.13.36-.17.54-.21,1.09-.2,1.65,0,.21.11.29.31.25.72-.15,1.37-.43,1.98-.84.07-.05.15-.1.23-.15-.02.3-.02.59.02.88.07.44.2.86.37,1.27.07.17.21.2.36.09.11-.08.22-.17.33-.25.42-.33.81-.69,1.13-1.11.05-.06.09-.12.13-.17.06.22.11.44.18.65.17.51.47.93.84,1.31.05.05.07.11.07.18,0,1.02,0,2.03,0,3.05v.09s-.03-.02-.03-.03c-.27-.26-.54-.52-.81-.78-.56-.52-1.12-1.02-1.73-1.48-.89-.68-1.89-1.03-3.02-1.01-.23,0-.46.01-.69.02-.21,0-.31.12-.28.32.09.58.23,1.15.46,1.69.52,1.19,1.39,2.02,2.63,2.45.52.18,1.06.21,1.6.22.56.01,1.12.02,1.68.03.06,0,.12,0,.18,0v3.52h.66ZM19.23,21.71c.35-.15.72-.24,1.1-.28.23-.02.46-.03.7-.05.04,0,.07,0,.12,0-.05.19-.09.38-.15.56-.03.1-.06.19-.1.29-.67.11-2.92.5-3.62.85.6-.53,1.2-1.05,1.94-1.37ZM15.5,24.71c.73-.47,1.49-.88,2.31-1.15.07-.02.14-.04.2-.06l2.62-.67c-.2.38-.46.72-.78,1.02-.5.47-1.09.78-1.77.89-.36.06-.74.07-1.11.09-.48.02-.97.02-1.46.02-.07,0-.13,0-.21,0,.07-.05.13-.1.2-.14ZM21.99,8.26c.21.02.41.06.62.1-.32.89-.93,1.43-1.81,1.69-.42.12-.83.25-1.24.38-.13-.32-.27-.65-.41-.98.22-.14.46-.29.7-.45.2-.13.38-.28.58-.4.48-.28,1.01-.39,1.56-.33ZM18.33,7.36c.36-.63.9-1.03,1.57-1.27.22-.08.45-.13.68-.2,0,1.08-.39,2.34-1.79,3.01-.25-.33-.54-.64-.87-.9.14-.22.29-.43.42-.65ZM16.22,6.8c.07-.36.15-.72.29-1.06.26-.63.71-1.1,1.31-1.43.06-.03.13-.07.18-.1.51,1.27.16,2.39-.63,3.43-.2-.09-.39-.19-.59-.27-.2-.08-.41-.14-.63-.22.02-.11.05-.23.07-.35ZM14.15,5.7c.03-.65.23-1.23.63-1.74.05-.07.1-.13.17-.22.11.16.23.3.32.46.33.52.49,1.09.46,1.71-.01.21-.08.41-.12.62-.03.17-.07.33-.1.49h-1.14c-.04-.22-.09-.45-.14-.68-.05-.21-.1-.42-.09-.64ZM14.95,7.63c2.39,0,4.15,1.89,4.17,4.2,0,2.29-1.86,4.13-4.19,4.11-2.28-.02-4.16-1.75-4.15-4.15.01-2.28,1.83-4.17,4.17-4.16ZM11.66,5.15c.03-.32.11-.64.23-.96.15.09.31.17.45.27.63.42,1.02,1,1.2,1.73.08.32.15.63.22.96-.45.11-.85.27-1.24.5-.22-.32-.43-.63-.59-.98-.21-.49-.31-.99-.27-1.52ZM9.91,6.05c.65.22,1.19.6,1.57,1.18.17.25.33.51.49.78-.32.26-.62.55-.87.89-1.39-.67-1.78-1.82-1.81-3.01.21.06.41.1.61.16ZM7.29,8.42s0-.02-.01-.05c.19-.03.37-.08.55-.1.69-.08,1.33.08,1.9.48.34.24.68.47,1.01.69-.13.32-.27.65-.41.99-.2-.07-.41-.14-.62-.2-.31-.1-.63-.16-.93-.28-.72-.28-1.22-.8-1.49-1.53ZM6.44,11.06c.39-.23.79-.36,1.22-.45.59-.11,1.16,0,1.71.18.27.09.54.18.82.27-.01.14-.03.29-.04.44,0,.09,0,.18-.02.27,0,.03-.03.06-.05.07-.33.09-.65.18-.99.21-.42.03-.83-.04-1.22-.17-.53-.18-1-.46-1.44-.81ZM6.77,14.02c-.06-.02-.12-.04-.19-.06.2-.24.4-.46.64-.64.44-.33.94-.52,1.48-.59.5-.07,1-.12,1.48-.27.07.32.15.64.22.96-.63.32-1.27.66-2,.77-.56.08-1.1,0-1.63-.17ZM8.88,16.19c-.43.13-.87.2-1.32.21-.03,0-.06,0-.1,0,.12-.27.25-.53.42-.76.38-.49.86-.84,1.45-1.05.46-.17.89-.39,1.34-.58.14.22.29.45.44.69-.06.06-.14.12-.21.19-.19.18-.37.38-.56.55-.42.37-.92.58-1.45.74ZM9.33,18.34c.01-.13.02-.26.03-.38.04-.39.15-.77.36-1.11.13-.22.29-.4.52-.53.39-.22.69-.55,1.01-.86.09-.09.18-.18.26-.27.22.18.43.36.62.52-.47,1.36-1.47,2.17-2.8,2.64ZM11.98,19.48c-.23-.76-.24-1.5.1-2.23.11-.23.25-.45.37-.68.1-.18.18-.37.26-.53.36.13.72.26,1.08.39-.21,1.23-.82,2.24-1.81,3.04ZM9.33,21.41c.41.03.81.1,1.19.24.41.15.77.38,1.11.63.34.26.67.53,1,.79,0,0,0,.01-.01.02,0,0-.42-.17-1.04-.31-.09-.02-.18-.04-.27-.07-.03,0-.07-.01-.1,0-.61-.11-1.34-.17-2.06-.04-.05-.12-.1-.23-.15-.36-.1-.27-.17-.56-.25-.84,0-.02,0-.04,0-.06.19,0,.38-.01.56,0ZM13.35,24.84c-.38,0-.76-.03-1.14-.04-.57-.02-1.1-.2-1.59-.49-.48-.28-.85-.65-1.14-1.09.77-.05,2.4.03,4.34,1.15.1.06.2.12.3.19.11.07.23.14.34.22.03.02.07.05.1.07-.41,0-.81,0-1.22,0ZM15.16,19.98c-.07.09-.14.17-.22.26-.38-.39-.62-.85-.73-1.37-.09-.41-.12-.82-.03-1.23.06-.31.15-.61.22-.92.02-.06.03-.13.04-.18h1.02c.02.09.04.2.07.31.07.27.16.53.19.8.12.85-.03,1.64-.57,2.33ZM17.92,19.42s0,.03-.01.04c0,0,0,0-.01.01-.99-.78-1.57-1.81-1.78-3.03.36-.13.72-.26,1.06-.39.19.35.38.71.57,1.07.16.29.24.59.29.91.08.47.02.93-.12,1.39ZM18.88,17.41c-.56-.45-.84-1.08-1.14-1.7.21-.18.42-.35.65-.55.21.23.43.47.66.69.16.16.34.3.54.42.34.2.55.5.71.84.15.31.21.65.24.99,0,.07.01.14.02.22-.63-.19-1.17-.52-1.68-.92ZM22.33,16.21c.03.06.06.13.1.21-.19-.01-.37-.02-.54-.04-.53-.06-1.03-.2-1.51-.41-.42-.18-.79-.43-1.1-.77-.16-.17-.31-.35-.47-.52.13-.2.28-.44.43-.68.5.27,1.02.49,1.56.71.71.29,1.22.81,1.54,1.51ZM22.98,13.6c.11.11.22.23.34.36-.43.15-.84.26-1.27.26-.54.01-1.05-.1-1.54-.32-.34-.16-.68-.32-1.01-.48.08-.33.15-.64.22-.95.21.05.43.1.66.14.27.05.55.08.82.12.69.1,1.29.37,1.78.87ZM22.91,11.43c-.45.28-.93.49-1.46.58-.44.07-.87.04-1.29-.08-.12-.03-.23-.06-.35-.1-.02,0-.05-.03-.05-.05-.02-.24-.03-.48-.05-.74.43-.13.85-.28,1.29-.39.75-.19,1.48-.07,2.18.26.09.04.17.09.28.14-.19.13-.36.26-.54.37Z"/>
</svg>