<?xml version="1.0" encoding="UTF-8"?>
<svg id="Capa_1" xmlns="http://www.w3.org/2000/svg" version="1.1" viewBox="0 0 29.89 31.85">
  <!-- Generator: Adobe Illustrator 30.0.0, SVG Export Plug-In . SVG Version: 2.1.1 Build 123)  -->
  <defs>
    <style>
      .st0 {
        fill: #141414;
      }
    </style>
  </defs>
  <path class="st0" d="M24.26,15.2c-.08-.01-.17-.02-.25-.03-.12-.01-.24-.02-.36-.03-.4-.03-.81-.03-1.22,0-.81.05-1.61.2-2.39.45-.08.02-.15.05-.23.08.01-.28.02-.57.02-.85,0-2.58-.46-5.01-1.3-6.85-.91-2-2.19-3.11-3.6-3.11s-2.68,1.1-3.6,3.11c-.84,1.84-1.3,4.27-1.3,6.85,0,.29,0,.57.02.85-.08-.03-.15-.05-.23-.08-.77-.25-1.58-.4-2.39-.45-.41-.02-.81-.02-1.22,0-.12,0-.24.02-.36.03-.08,0-.17.02-.25.03-.18.02-.17.02-.55.08.1.27.49,1.13.52,1.21.18.45.39.89.63,1.31.37.65.81,1.27,1.3,1.83.51.58,1.1,1.09,1.61,1.67.62.72,1.14,1.52,1.55,2.38.11.23.2.47.29.72.26.69.55,1.48,1.28,2.05.47.36,1.02.55,1.55.55.05,0,.1,0,.15,0,.65-.04,1.31-.04,1.96,0,.05,0,.1,0,.15,0,.53,0,1.08-.19,1.55-.55.73-.57,1.02-1.35,1.28-2.05.09-.25.18-.49.29-.72.41-.86.93-1.66,1.55-2.38.51-.59,1.1-1.09,1.61-1.67.5-.56.93-1.18,1.3-1.83.24-.42.45-.86.63-1.31.03-.08.42-.94.52-1.21-.38-.06-.37-.06-.55-.08ZM14.95,6.17c.07,0,.14,0,.21.02h-.38s-.06,0-.09,0c.09-.02.17-.03.26-.03ZM14.71,24.3c0,.16-.03.31-.05.45-.03.16-.07.3-.12.42-.04.09-.08.17-.13.24-.05.07-.1.12-.17.16-.04.02-.07.05-.11.06-.32.14-.77.01-1.06-.21-.44-.34-.63-.86-.86-1.47-.1-.27-.2-.55-.34-.82-.46-.97-1.05-1.87-1.74-2.67-.34-.4-.71-.77-1.07-1.13-.31-.31-.59-.6-.87-.91-.35-.39-.62-.87-.91-1.41-.02-.05-.11-.24-.23-.5.51.03,1.05.06,1.33.09.54.07,1.21.28,1.78.51,0,0,0,0,0,0,0,0,0,0,0,0,.2.08.38.16.55.25.3.15.6.32.88.52,0,0,0,0,0,0,1.22.84,2.14,2.05,2.65,3.42h0c.25.68.41,1.4.45,2.13.02.29.02.58,0,.87ZM13.97,18.26s.01-.07.01-.11c0-.29-.24-.53-.53-.53h-.09c-.26-.25-.53-.48-.82-.69.03-.06.04-.14.04-.21,0-.29-.24-.53-.53-.53h-.44c-.07,0-.14.01-.21.04,0,0,0,0,0,0-.01-.15-.02-.31-.03-.47.07.03.15.06.23.06h.44c.29,0,.53-.24.53-.53s-.24-.53-.53-.53h-.44c-.09,0-.18.02-.26.07,0,0,0-.01,0-.02,0-.16,0-.32,0-.48.07.04.16.06.25.06h.44c.29,0,.53-.24.53-.53s-.24-.53-.53-.53h-.44c-.07,0-.14.01-.21.04.01-.15.02-.29.04-.44.05.02.11.03.17.03h.44c.29,0,.53-.24.53-.53s-.24-.53-.53-.53h-.44s-.03,0-.04,0c.02-.13.04-.25.06-.37h.42c.29,0,.53-.24.53-.53s-.24-.53-.53-.53h-.19c.03-.13.06-.25.1-.37h.09c.29,0,.53-.24.53-.53,0-.21-.12-.39-.29-.47.08-.2.16-.4.25-.59.07-.16.15-.32.23-.47,0,.03-.01.07-.01.1,0,.29.24.53.53.53h.16c.29,0,.53-.24.53-.53s-.24-.53-.53-.53h-.16c-.14,0-.26.05-.36.14.11-.19.22-.36.34-.51,0,0,.01,0,.02,0h.16c.29,0,.53-.24.53-.53,0-.06-.01-.12-.03-.17.23-.17.46-.29.69-.34-.23.06-.39.27-.39.51,0,.29.24.53.53.53h.44c.29,0,.53-.24.53-.53,0-.16-.07-.3-.18-.4.13.06.26.14.38.24-.02.05-.03.11-.03.16,0,.29.24.53.53.53h.16s0,0,0,0c.11.15.22.31.33.49-.09-.07-.21-.12-.33-.12h-.16c-.29,0-.53.24-.53.53s.24.53.53.53h.16c.29,0,.53-.24.53-.53,0-.02,0-.05,0-.07.07.14.14.28.21.43.09.2.18.41.26.62-.15.09-.24.26-.24.45,0,.29.24.53.53.53h.04c.03.12.07.25.1.37h-.13c-.29,0-.53.24-.53.53s.24.53.53.53h.36c.02.12.04.25.06.37h-.42c-.29,0-.53.24-.53.53s.24.53.53.53h.44s.08,0,.11-.01c.01.13.02.27.03.4-.05-.01-.1-.02-.15-.02h-.44c-.29,0-.53.24-.53.53s.24.53.53.53h.44c.07,0,.13-.01.19-.04,0,.15,0,.3,0,.45-.06-.03-.13-.04-.2-.04h-.44c-.29,0-.53.24-.53.53s.24.53.53.53h.44c.06,0,.12-.01.18-.03,0,.14-.02.28-.03.42-.05-.01-.1-.02-.15-.02h-.44c-.29,0-.53.24-.53.53,0,.06.01.12.03.18-.31.22-.59.46-.86.72h-.08c-.29,0-.53.24-.53.53,0,.03,0,.07,0,.1-.38.44-.71.92-.99,1.42-.28-.5-.6-.98-.98-1.41ZM22.6,17c-.29.54-.55,1.02-.91,1.41-.28.31-.56.6-.87.91-.36.36-.72.73-1.07,1.13-.7.81-1.28,1.7-1.74,2.67-.13.28-.24.56-.34.82-.23.61-.42,1.13-.86,1.47-.29.22-.73.35-1.06.21.07-.17.12-.35.16-.55.03-.16.06-.34.08-.53,0-.06,0-.11.01-.17.03-.45.02-.9-.03-1.34-.06-.59-.18-1.17-.35-1.74h0s0,0,0,0c.51-1.37,1.43-2.58,2.65-3.42,0,0,0,0,0,0,.28-.19.57-.37.88-.52.16-.08.35-.16.55-.25.57-.23,1.24-.44,1.78-.51.28-.03.82-.07,1.33-.09-.12.26-.2.45-.23.5Z"/>
  <path class="st0" d="M13.45,11.9h-.16c-.29,0-.53.24-.53.53s.24.53.53.53h.16c.29,0,.53-.24.53-.53s-.24-.53-.53-.53Z"/>
  <path class="st0" d="M13.45,13.33h-.16c-.29,0-.53.24-.53.53s.24.53.53.53h.16c.29,0,.53-.24.53-.53s-.24-.53-.53-.53Z"/>
  <path class="st0" d="M13.45,14.76h-.16c-.29,0-.53.24-.53.53s.24.53.53.53h.16c.29,0,.53-.24.53-.53s-.24-.53-.53-.53Z"/>
  <path class="st0" d="M13.45,16.19h-.16c-.29,0-.53.24-.53.53s.24.53.53.53h.16c.29,0,.53-.24.53-.53s-.24-.53-.53-.53Z"/>
  <path class="st0" d="M15.22,11.9h-.44c-.29,0-.53.24-.53.53s.24.53.53.53h.44c.29,0,.53-.24.53-.53s-.24-.53-.53-.53Z"/>
  <path class="st0" d="M15.22,13.33h-.44c-.29,0-.53.24-.53.53s.24.53.53.53h.44c.29,0,.53-.24.53-.53s-.24-.53-.53-.53Z"/>
  <path class="st0" d="M15.22,14.76h-.44c-.29,0-.53.24-.53.53s.24.53.53.53h.44c.29,0,.53-.24.53-.53s-.24-.53-.53-.53Z"/>
  <path class="st0" d="M15.22,16.19h-.44c-.29,0-.53.24-.53.53s.24.53.53.53h.44c.29,0,.53-.24.53-.53s-.24-.53-.53-.53Z"/>
  <path class="st0" d="M15.22,17.62h-.44c-.29,0-.53.24-.53.53s.24.53.53.53h.44c.29,0,.53-.24.53-.53s-.24-.53-.53-.53Z"/>
  <path class="st0" d="M16.45,12.96h.16c.29,0,.53-.24.53-.53s-.24-.53-.53-.53h-.16c-.29,0-.53.24-.53.53s.24.53.53.53Z"/>
  <path class="st0" d="M13.45,10.47h-.16c-.29,0-.53.24-.53.53s.24.53.53.53h.16c.29,0,.53-.24.53-.53s-.24-.53-.53-.53Z"/>
  <path class="st0" d="M15.22,10.47h-.44c-.29,0-.53.24-.53.53s.24.53.53.53h.44c.29,0,.53-.24.53-.53s-.24-.53-.53-.53Z"/>
  <path class="st0" d="M16.45,11.53h.16c.29,0,.53-.24.53-.53s-.24-.53-.53-.53h-.16c-.29,0-.53.24-.53.53s.24.53.53.53Z"/>
  <path class="st0" d="M13.45,9.04h-.16c-.29,0-.53.24-.53.53s.24.53.53.53h.16c.29,0,.53-.24.53-.53s-.24-.53-.53-.53Z"/>
  <path class="st0" d="M15.22,9.04h-.44c-.29,0-.53.24-.53.53s.24.53.53.53h.44c.29,0,.53-.24.53-.53s-.24-.53-.53-.53Z"/>
  <path class="st0" d="M16.45,10.1h.16c.29,0,.53-.24.53-.53s-.24-.53-.53-.53h-.16c-.29,0-.53.24-.53.53s.24.53.53.53Z"/>
  <path class="st0" d="M15.22,7.62h-.44c-.29,0-.53.24-.53.53s.24.53.53.53h.44c.29,0,.53-.24.53-.53s-.24-.53-.53-.53Z"/>
  <path class="st0" d="M16.45,14.39h.16c.29,0,.53-.24.53-.53s-.24-.53-.53-.53h-.16c-.29,0-.53.24-.53.53s.24.53.53.53Z"/>
  <path class="st0" d="M16.45,15.82h.16c.29,0,.53-.24.53-.53s-.24-.53-.53-.53h-.16c-.29,0-.53.24-.53.53s.24.53.53.53Z"/>
  <path class="st0" d="M16.45,17.25h.16c.29,0,.53-.24.53-.53s-.24-.53-.53-.53h-.16c-.29,0-.53.24-.53.53s.24.53.53.53Z"/>
</svg>