<?xml version="1.0" encoding="UTF-8"?>
<svg id="Capa_1" xmlns="http://www.w3.org/2000/svg" version="1.1" viewBox="0 0 29.89 31.85">
  <!-- Generator: Adobe Illustrator 30.0.0, SVG Export Plug-In . SVG Version: 2.1.1 Build 123)  -->
  <defs>
    <style>
      .st0 {
        fill: #141414;
      }
    </style>
  </defs>
  <path class="st0" d="M19.09,8.2c-.99.99-.99,2.6,0,3.59s2.6.99,3.59,0c.99-.99.99-2.6,0-3.59-.99-.99-2.6-.99-3.59,0ZM21.75,10.86c-.48.48-1.25.48-1.73,0-.48-.48-.48-1.25,0-1.73.48-.48,1.25-.48,1.73,0,.48.48.48,1.25,0,1.73Z"/>
  <path class="st0" d="M13.15,14.13c-.99.99-.99,2.6,0,3.59.99.99,2.6.99,3.59,0,.99-.99.99-2.6,0-3.59-.99-.99-2.6-.99-3.59,0ZM15.81,16.79c-.48.48-1.25.48-1.73,0-.48-.48-.48-1.25,0-1.73.48-.48,1.25-.48,1.73,0,.48.48.48,1.25,0,1.73Z"/>
  <path class="st0" d="M7.22,20.07c-.99.99-.99,2.6,0,3.59.99.99,2.6.99,3.59,0,.99-.99.99-2.6,0-3.59-.99-.99-2.6-.99-3.59,0ZM9.88,22.73c-.48.48-1.25.48-1.73,0s-.48-1.25,0-1.73,1.25-.48,1.73,0c.48.48.48,1.25,0,1.73Z"/>
  <path class="st0" d="M25.84,5.57l-.08-.47-.47-.08c-.06,0-1.53-.24-3.25-.24-2.43,0-4.11.45-5.01,1.36-.85.85-1.38,1.92-1.54,3.1-.09.68-.61,1.2-1.29,1.29-1.18.16-2.26.7-3.1,1.54s-1.38,1.92-1.54,3.1c-.09.68-.61,1.2-1.29,1.29-1.18.16-2.26.7-3.1,1.54-.9.9-1.36,2.59-1.36,5.01,0,1.72.23,3.19.24,3.25l.08.47.47.08c.06,0,1.53.24,3.25.24,2.43,0,4.11-.45,5.01-1.36.85-.85,1.38-1.92,1.54-3.1.09-.68.61-1.2,1.29-1.29,1.18-.16,2.26-.7,3.1-1.54.85-.85,1.38-1.92,1.54-3.1.09-.68.61-1.2,1.29-1.29,1.18-.16,2.26-.7,3.1-1.54.9-.9,1.36-2.59,1.36-5.01,0-1.72-.23-3.19-.24-3.25ZM23.8,12.91c-.64.64-1.46,1.05-2.35,1.17-.62.09-1.18.38-1.61.8-.43.43-.72.99-.8,1.61-.12.9-.53,1.71-1.17,2.35-.64.64-1.46,1.05-2.35,1.17-1.25.17-2.24,1.16-2.41,2.41-.12.9-.53,1.71-1.17,2.35s-2.07.97-4.07.97c-1.06,0-2.03-.1-2.58-.16-.07-.55-.16-1.51-.16-2.57,0-2.01.34-3.46.97-4.09.64-.64,1.46-1.05,2.35-1.17,1.25-.17,2.24-1.16,2.41-2.41.12-.9.53-1.71,1.17-2.35.64-.64,1.46-1.05,2.35-1.17,1.25-.17,2.24-1.16,2.41-2.41.12-.9.53-1.71,1.17-2.35.63-.63,2.07-.97,4.07-.97,1.06,0,2.03.1,2.58.16.07.55.16,1.53.16,2.58,0,2-.35,3.44-.97,4.07Z"/>
</svg>