<?xml version="1.0" encoding="UTF-8"?>
<svg id="Capa_1" xmlns="http://www.w3.org/2000/svg" version="1.1" viewBox="0 0 29.89 31.85">
  <!-- Generator: Adobe Illustrator 30.0.0, SVG Export Plug-In . SVG Version: 2.1.1 Build 123)  -->
  <defs>
    <style>
      .st0 {
        fill: #010101;
        stroke: #010101;
        stroke-miterlimit: 10;
        stroke-width: .38px;
      }
    </style>
  </defs>
  <path class="st0" d="M17.23,20.02h-4.57c-.16,0-.29-.13-.29-.29s.13-.29.29-.29h4.57c.16,0,.29.13.29.29s-.13.29-.29.29ZM10.68,16.67c-.14,0-.27-.11-.29-.25,0-.06,0-.13,0-.19,0-.24.04-.48.14-.69-.13-.26-.2-.54-.2-.83,0-.53.22-1.02.6-1.37-.38-.35-.6-.84-.6-1.37,0-.61.3-1.17.79-1.5-.35-.34-.55-.81-.55-1.31,0-.64.35-1.24.88-1.56-.13-.25-.19-.53-.19-.82,0-.73.42-1.37,1.07-1.67.1-.93.87-1.66,1.82-1.66.26,0,.52.06.76.16.18-.06.38-.1.57-.1,1.01,0,1.84.82,1.84,1.83,0,.13-.02.26-.04.39.72.26,1.21.94,1.21,1.73,0,.31-.08.62-.23.89.53.33.86.91.86,1.56,0,.34-.09.66-.26.93.25.32.38.71.38,1.12,0,.48-.18.93-.51,1.27.45.35.73.88.73,1.46,0,.22-.04.45-.12.66.14.27.22.56.22.86v.07c0,.16-.14.28-.29.27s-.28-.14-.27-.29v-.05c0-.25-.07-.48-.21-.69-.05-.09-.06-.19-.02-.28.09-.17.13-.36.13-.55,0-.51-.3-.96-.76-1.17-.1-.04-.16-.13-.17-.23s.04-.21.13-.26c.36-.23.59-.64.59-1.07,0-.34-.13-.66-.37-.9-.1-.1-.11-.26-.03-.37.17-.22.27-.49.27-.79,0-.53-.32-.99-.81-1.18-.09-.03-.15-.1-.17-.19s0-.18.06-.25c.19-.22.3-.52.3-.82,0-.62-.44-1.15-1.05-1.25-.09-.02-.16-.07-.2-.14-.04-.08-.04-.16-.02-.24.06-.16.1-.31.1-.48,0-.7-.57-1.27-1.27-1.27-.16,0-.33.03-.48.1-.08.03-.16.03-.24-.02-.18-.1-.4-.16-.6-.16-.7,0-1.27.57-1.27,1.27h0c0,.13-.08.24-.19.28-.52.17-.87.66-.87,1.21,0,.28.09.54.25.76.05.07.07.16.04.25s-.09.16-.17.18c-.49.19-.82.67-.82,1.19,0,.46.25.88.65,1.11.1.05.16.16.15.27s-.08.21-.19.24c-.5.18-.85.67-.85,1.2,0,.47.25.9.67,1.11.1.05.15.15.15.25s-.05.2-.15.25c-.41.22-.67.65-.67,1.11,0,.24.07.47.19.67.05.09.05.19,0,.28-.1.18-.14.37-.14.58,0,.04,0,.09,0,.13.02.16-.1.29-.25.31,0,0,0,0,0,0Z"/>
  <path class="st0" d="M15.54,24.32c-.16,0-.29-.13-.29-.29v-4.3c0-.16.13-.29.29-.29s.29.13.29.29v4.3c0,.16-.13.29-.29.29ZM14.35,24.32c-.16,0-.29-.13-.29-.29v-4.3c0-.16.13-.29.29-.29s.29.13.29.29v4.3c0,.16-.13.29-.29.29Z"/>
  <path class="st0" d="M15.41,6.1c-.1,0-.19-.05-.24-.13-.04-.07-.12-.11-.2-.11s-.16.04-.2.1c-.09.13-.26.16-.39.08s-.16-.26-.08-.39c.15-.22.4-.36.67-.36s.54.14.68.38c.09.13.04.31-.09.39-.06.03-.11.04-.16.04Z"/>
  <path class="st0" d="M13.76,8.17c-.1,0-.19-.05-.24-.13-.04-.07-.12-.11-.2-.11s-.16.04-.2.1c-.09.13-.26.16-.39.08s-.16-.26-.08-.39c.15-.22.4-.36.67-.36s.54.14.68.38c.08.13.04.31-.1.39-.05.03-.1.04-.16.04Z"/>
  <path class="st0" d="M16.27,9.02c-.1,0-.19-.05-.24-.13-.04-.07-.12-.11-.2-.11s-.16.04-.2.1c-.09.13-.26.16-.39.08s-.16-.26-.09-.39c.15-.22.4-.36.67-.36s.54.14.68.38c.09.13.04.31-.09.39-.05.03-.1.04-.16.04Z"/>
  <path class="st0" d="M14.33,10.46c-.1,0-.19-.05-.24-.13-.04-.07-.12-.11-.2-.11s-.16.04-.2.1c-.09.13-.26.16-.39.08s-.16-.26-.08-.39c.15-.22.4-.36.67-.36s.54.14.68.38c.08.13.04.31-.1.39-.05.03-.1.04-.16.04Z"/>
  <path class="st0" d="M16.46,11.56c-.1,0-.19-.05-.24-.13-.04-.07-.12-.11-.2-.11s-.16.04-.2.1c-.09.13-.26.16-.39.08s-.16-.26-.09-.39c.15-.22.4-.36.67-.36s.54.14.68.38c.09.13.04.31-.09.39-.05.03-.1.04-.16.04Z"/>
  <path class="st0" d="M13.39,12.38c-.1,0-.19-.05-.24-.13-.04-.07-.12-.11-.2-.11s-.16.04-.2.1c-.09.13-.26.16-.39.08s-.16-.26-.08-.39c.15-.22.4-.36.67-.36s.54.14.68.38c.08.13.04.31-.1.39-.05.03-.1.04-.16.04Z"/>
  <path class="st0" d="M16.52,13.35c-.1,0-.19-.05-.24-.13-.04-.07-.12-.11-.2-.11s-.16.04-.2.1c-.09.13-.26.16-.39.08s-.16-.26-.09-.39c.15-.22.4-.36.67-.36s.54.14.68.38c.09.13.04.31-.09.39-.05.03-.1.04-.16.04Z"/>
  <path class="st0" d="M15.08,14.04c-.1,0-.19-.05-.24-.13-.04-.07-.12-.11-.2-.11s-.16.04-.2.1c-.09.13-.26.16-.39.08s-.16-.26-.08-.39c.15-.22.4-.36.67-.36s.54.14.68.38c.09.13.04.31-.09.39-.06.03-.11.04-.16.04Z"/>
  <path class="st0" d="M12.79,15.08c-.1,0-.19-.05-.24-.13-.04-.07-.12-.11-.2-.11s-.16.04-.2.1c-.09.13-.26.16-.39.08s-.16-.26-.08-.39c.15-.22.4-.36.67-.36s.54.14.68.38c.08.13.04.31-.1.39-.05.03-.1.04-.16.04Z"/>
  <path class="st0" d="M14.24,16.67c-.1,0-.19-.04-.24-.13-.04-.07-.12-.11-.2-.11s-.16.04-.2.1c-.09.13-.26.16-.39.09-.13-.09-.16-.26-.08-.39.15-.22.4-.36.67-.36s.54.14.68.38c.08.13.04.3-.1.39-.05.03-.1.03-.16.03Z"/>
  <path class="st0" d="M16.83,17.3c-.1,0-.2-.05-.25-.15-.03-.06-.09-.1-.15-.1-.05,0-.11.03-.14.1-.08.14-.25.18-.39.1s-.18-.25-.1-.39c.14-.23.37-.37.63-.37s.51.15.64.39c.08.14.03.31-.11.38-.03.02-.09.03-.13.03Z"/>
  <path class="st0" d="M16.82,15.71c-.1,0-.2-.05-.25-.15-.03-.06-.09-.1-.15-.1-.05,0-.11.03-.14.1-.08.14-.25.18-.39.1s-.18-.25-.1-.39c.14-.23.37-.37.63-.37s.51.15.64.39c.08.14.03.31-.11.38-.03.03-.08.03-.13.03Z"/>
  <path class="st0" d="M13.55,18.72c-.1,0-.2-.05-.25-.15-.03-.06-.09-.1-.15-.1-.05,0-.11.03-.14.1-.08.14-.25.18-.39.1s-.18-.25-.1-.39c.14-.23.37-.37.63-.37s.51.15.64.39c.08.14.03.31-.11.38-.03.03-.08.03-.13.03Z"/>
  <path class="st0" d="M16.76,18.97c-.1,0-.2-.05-.25-.15-.03-.06-.09-.1-.15-.1-.05,0-.11.03-.14.1-.08.14-.25.18-.39.1s-.18-.25-.1-.39c.14-.23.37-.37.63-.37s.51.15.64.39c.08.14.03.31-.11.38-.03.03-.09.03-.13.03Z"/>
  <path class="st0" d="M14.94,28.4s-.1,0-.14-.03c-2.41-1.3-5.06-4.17-7.1-7.68s-3.19-7.24-3.1-9.98c0-.1.05-.19.14-.23.09-.05.19-.05.28,0,2.41,1.3,5.06,4.17,7.1,7.68,2.03,3.52,3.19,7.24,3.1,9.98,0,.1-.05.19-.14.23-.04.03-.09.04-.14.04ZM5.18,11.2c.06,2.58,1.17,5.98,3.03,9.2s4.24,5.89,6.46,7.23c-.06-2.58-1.17-5.98-3.03-9.2-1.86-3.22-4.24-5.89-6.46-7.23Z"/>
  <path class="st0" d="M14.95,28.4c-.05,0-.1,0-.14-.03-.09-.05-.14-.14-.14-.23-.09-2.74,1.08-6.47,3.1-9.98,2.02-3.51,4.68-6.39,7.1-7.68.09-.04.19-.04.28,0s.14.14.14.23c.09,2.74-1.08,6.47-3.1,9.98-2.03,3.51-4.68,6.39-7.1,7.68-.04.02-.1.03-.14.03ZM24.72,11.2c-2.21,1.34-4.6,4-6.46,7.23s-2.97,6.62-3.03,9.2c2.21-1.34,4.6-4,6.46-7.23,1.87-3.22,2.98-6.62,3.03-9.2Z"/>
  <path class="st0" d="M14.95,28.4c-.05,0-.1,0-.14-.03-.14-.08-.18-.25-.1-.39l5.02-8.7c.08-.14.25-.18.39-.1s.18.25.1.39l-5.02,8.7c-.06.09-.16.14-.25.14Z"/>
  <path class="st0" d="M14.95,28.4c-.1,0-.19-.05-.24-.14l-5.02-8.7c-.08-.14-.03-.31.1-.39s.31-.03.39.1l5.02,8.7c.08.14.03.31-.1.39-.05.02-.1.03-.15.03Z"/>
</svg>