<?xml version="1.0" encoding="UTF-8"?>
<svg id="Capa_1" xmlns="http://www.w3.org/2000/svg" version="1.1" viewBox="0 0 29.89 31.85">
  <!-- Generator: Adobe Illustrator 30.0.0, SVG Export Plug-In . SVG Version: 2.1.1 Build 123)  -->
  <defs>
    <style>
      .st0 {
        fill: #141414;
      }
    </style>
  </defs>
  <path class="st0" d="M15.34,2l-.41-.38-.41.38c-1.5,1.4-2.22,2.87-2.12,4.38.15,2.31,2.15,3.78,2.24,3.84l.36.26.35-.26c.08-.06,2.02-1.52,2.15-3.8.09-1.52-.64-3.01-2.15-4.42ZM16.29,6.34c-.06,1.2-.84,2.14-1.31,2.6-.49-.46-1.31-1.42-1.38-2.64-.06-.99.39-2.01,1.33-3.01.96,1.02,1.42,2.04,1.36,3.05Z"/>
  <path class="st0" d="M17.02,9.2c-1.49,1.77-1.05,4.22-1.04,4.32l.08.43.44.06s.24.03.56.03c.83,0,2.41-.17,3.62-1.29,1.11-1.04,1.62-2.61,1.5-4.68l-.03-.56h-.56c-2.05-.03-3.59.54-4.56,1.69ZM20.98,8.72c-.01,1.4-.39,2.46-1.13,3.15-.88.82-2.09.96-2.74.97-.03-.67.03-1.92.82-2.86.64-.76,1.67-1.19,3.05-1.26Z"/>
  <path class="st0" d="M22.14,13.58h-.56c-2.05-.04-3.59.54-4.56,1.69-1.49,1.77-1.05,4.22-1.04,4.32l.08.43.44.06s.24.03.56.03c.83,0,2.41-.17,3.62-1.29,1.11-1.04,1.62-2.61,1.5-4.68l-.03-.56ZM19.86,17.94c-.88.82-2.09.96-2.74.97-.03-.67.03-1.92.82-2.86.64-.76,1.67-1.19,3.05-1.26-.01,1.4-.39,2.46-1.13,3.15Z"/>
  <path class="st0" d="M22.14,19.66h-.56c-2.05-.04-3.59.54-4.56,1.69-1.49,1.77-1.05,4.22-1.04,4.32l.08.43.44.06s.24.03.56.03c.83,0,2.41-.17,3.62-1.29,1.11-1.04,1.62-2.61,1.5-4.68l-.03-.56ZM19.86,24.01c-.88.82-2.09.96-2.74.97-.03-.67.03-1.92.82-2.86.64-.76,1.67-1.19,3.05-1.26-.01,1.4-.39,2.46-1.13,3.15Z"/>
  <path class="st0" d="M8.31,7.5h-.56s-.03.57-.03.57c-.12,2.07.38,3.64,1.5,4.68,1.21,1.13,2.79,1.29,3.62,1.29.32,0,.53-.02.56-.03l.44-.06.08-.43c.02-.1.45-2.55-1.04-4.32-.97-1.16-2.51-1.73-4.56-1.7ZM12.77,12.84c-.65,0-1.85-.15-2.73-.97-.74-.69-1.12-1.75-1.13-3.15,1.38.07,2.4.5,3.04,1.26.79.93.86,2.19.82,2.87Z"/>
  <path class="st0" d="M8.31,13.58h-.56s-.03.57-.03.57c-.12,2.07.38,3.64,1.5,4.68,1.21,1.13,2.79,1.29,3.62,1.29.32,0,.53-.02.56-.03l.44-.06.08-.43c.02-.1.45-2.55-1.04-4.32-.97-1.16-2.51-1.73-4.56-1.7ZM12.77,18.91c-.66,0-1.87-.15-2.74-.97-.74-.69-1.11-1.75-1.13-3.15,1.38.07,2.4.5,3.04,1.26.79.93.86,2.19.82,2.86Z"/>
  <path class="st0" d="M8.31,19.65h-.56s-.03.57-.03.57c-.12,2.07.38,3.64,1.5,4.68,1.21,1.13,2.79,1.29,3.62,1.29.32,0,.53-.02.56-.03l.44-.06.08-.43c.02-.1.45-2.55-1.04-4.32-.97-1.16-2.51-1.73-4.56-1.7ZM12.77,24.98c-.66,0-1.87-.15-2.74-.97-.74-.69-1.11-1.75-1.13-3.15,1.38.07,2.4.5,3.04,1.26.79.93.86,2.19.82,2.86Z"/>
  <path class="st0" d="M14.95,10.78c-.33,0-.6.27-.6.6v18.25c0,.33.27.6.6.6s.6-.27.6-.6V11.39c0-.33-.27-.6-.6-.6Z"/>
</svg>