<?xml version="1.0" encoding="UTF-8"?>
<svg id="Layer_2" data-name="Layer 2" xmlns="http://www.w3.org/2000/svg" viewBox="0 0 273.72 21.32">
  <defs>
    <style>
      .cls-1 {
        fill: #cccbcb;
      }
    </style>
  </defs>
  <g id="Capa_1" data-name="Capa 1">
    <g>
      <g>
        <path class="cls-1" d="M108.1,4.66h1.74l-5.12,14.6h-1.74l5.12-14.6Z"/>
        <path class="cls-1" d="M114.63,17.26c-.38-.41-.57-1.01-.57-1.78s.2-1.33.59-1.68,1.02-.58,1.88-.66l2.2-.2v-.6c0-.45-.1-.78-.29-.98-.2-.2-.49-.3-.87-.3-.87,0-1.87.06-3.01.19l-.05-1.05c1.1-.26,2.11-.39,3.05-.39s1.57.2,1.98.61c.41.41.62,1.05.62,1.93v3.74c.02.21.09.36.21.47s.31.18.57.23l-.05,1.12c-.44,0-.82-.05-1.13-.15-.31-.1-.58-.25-.82-.46-.88.4-1.76.6-2.63.6-.73,0-1.29-.21-1.67-.62ZM118.39,16.38l.33-.11v-2.28l-2.02.19c-.4.04-.7.16-.89.36-.19.2-.29.5-.29.89,0,.83.35,1.24,1.04,1.24.63,0,1.24-.1,1.83-.29Z"/>
        <path class="cls-1" d="M122.36,9.96h1.43v.51c.39-.23.76-.4,1.12-.51.35-.11.71-.17,1.09-.17.4,0,.77.06,1.12.19s.61.32.81.58c.41-.23.87-.41,1.36-.56s.99-.22,1.5-.22c.64,0,1.14.13,1.5.39.36.26.62.66.77,1.21.15.55.23,1.28.23,2.2v4.12h-1.44v-4.09c0-.65-.04-1.15-.12-1.51-.08-.36-.22-.62-.42-.78-.2-.16-.5-.24-.89-.24-.29,0-.59.03-.9.1-.31.07-.58.15-.82.26l-.28.12c.11.44.17,1.15.17,2.11v4.03h-1.46v-4c0-.69-.04-1.22-.11-1.59-.07-.37-.21-.63-.41-.79-.2-.16-.5-.24-.89-.24-.29,0-.59.04-.89.11-.31.07-.56.15-.77.25l-.25.12v6.14h-1.44v-7.75Z"/>
        <path class="cls-1" d="M135.34,9.96h1.43v.51c.4-.24.78-.41,1.12-.52.35-.11.72-.16,1.11-.16.97,0,1.68.32,2.13.97.45.65.67,1.67.67,3.06,0,.98-.11,1.77-.34,2.36s-.59,1.03-1.09,1.29c-.5.27-1.17.4-2.01.4-.46,0-.99-.05-1.58-.15v3.36h-1.44v-11.13ZM139.87,15.97c.31-.43.46-1.14.46-2.12s-.13-1.67-.4-2.11c-.27-.43-.69-.65-1.26-.65-.26,0-.54.04-.84.12-.3.08-.56.17-.79.27l-.26.14v4.85c.72.1,1.23.15,1.52.15.74,0,1.27-.22,1.57-.65Z"/>
        <path class="cls-1" d="M143.99,16.96c-.51-.61-.76-1.59-.76-2.92,0-1.44.27-2.5.81-3.2.54-.7,1.38-1.05,2.52-1.05,2.11,0,3.16,1.2,3.16,3.6l-.09,1.05h-4.95c0,.56.08.99.22,1.29s.35.52.65.66.72.2,1.27.2c.32,0,.68,0,1.09-.02.4-.02.76-.04,1.09-.07l.43-.05.03,1.12c-1.21.21-2.19.31-2.93.31-1.19,0-2.04-.31-2.54-.92ZM148.28,13.31c0-.84-.13-1.43-.4-1.78s-.71-.53-1.33-.53c-.65,0-1.13.18-1.43.55-.3.37-.46.95-.47,1.76h3.61Z"/>
        <path class="cls-1" d="M151.44,9.96h1.43v.98c.92-.59,1.83-.97,2.73-1.15v1.46c-.4.08-.82.2-1.26.34-.43.14-.8.29-1.09.42l-.37.17v5.53h-1.44v-7.75Z"/>
        <path class="cls-1" d="M157.1,17.63l-.47-.08.06-1.24c1.25.18,2.14.26,2.68.26s.96-.08,1.24-.25c.28-.16.42-.43.42-.81,0-.27-.07-.47-.21-.61-.14-.14-.32-.24-.53-.31-.22-.07-.53-.13-.93-.19l-.37-.06c-.59-.09-1.06-.21-1.4-.36-.35-.14-.61-.36-.8-.64-.19-.28-.28-.66-.28-1.15,0-1.6.98-2.4,2.95-2.4.62,0,1.39.08,2.33.23l.45.09-.03,1.21c-1.16-.17-2.05-.25-2.67-.25-1.05,0-1.58.32-1.58.96,0,.24.07.42.2.55s.31.22.52.29c.21.06.51.13.91.2.07,0,.22.04.43.08.61.11,1.09.24,1.43.39.35.15.6.37.77.66s.26.68.26,1.18c0,.86-.25,1.49-.74,1.88-.5.4-1.26.6-2.29.6-.6,0-1.38-.08-2.34-.25Z"/>
        <path class="cls-1" d="M164.25,17.26c-.38-.41-.57-1.01-.57-1.78s.2-1.33.59-1.68,1.02-.58,1.88-.66l2.2-.2v-.6c0-.45-.1-.78-.29-.98-.2-.2-.49-.3-.87-.3-.87,0-1.87.06-3.01.19l-.05-1.05c1.1-.26,2.11-.39,3.05-.39s1.57.2,1.98.61c.41.41.62,1.05.62,1.93v3.74c.02.21.09.36.21.47s.31.18.57.23l-.05,1.12c-.44,0-.82-.05-1.13-.15-.31-.1-.58-.25-.82-.46-.88.4-1.76.6-2.63.6-.73,0-1.29-.21-1.67-.62ZM168.01,16.38l.33-.11v-2.28l-2.02.19c-.4.04-.7.16-.89.36-.19.2-.29.5-.29.89,0,.83.35,1.24,1.04,1.24.63,0,1.24-.1,1.83-.29Z"/>
        <path class="cls-1" d="M171.98,9.96h1.43v.51c.44-.25.85-.42,1.21-.53.36-.1.74-.16,1.15-.16.65,0,1.16.13,1.53.39s.64.66.79,1.2.23,1.28.23,2.21v4.12h-1.44v-4.09c0-.65-.04-1.15-.12-1.51-.08-.36-.22-.62-.43-.78-.21-.16-.52-.24-.92-.24-.55,0-1.12.12-1.72.36l-.26.12v6.14h-1.44v-7.75Z"/>
        <path class="cls-1" d="M180.68,16.91c-.43-.65-.65-1.63-.65-2.95,0-1.47.26-2.53.77-3.19.52-.66,1.34-.98,2.48-.98.55,0,1.15.07,1.81.22v-3.33h1.44v11.04h-1.44v-.47c-.81.42-1.56.64-2.26.64-1,0-1.72-.32-2.15-.97ZM183.98,16.47c.32-.07.6-.15.84-.25l.28-.11v-4.88c-.64-.12-1.19-.19-1.64-.19-.71,0-1.21.22-1.5.65-.29.43-.43,1.16-.43,2.19,0,.93.12,1.61.36,2.05s.66.65,1.25.65c.25,0,.53-.04.85-.11Z"/>
        <path class="cls-1" d="M188.98,20.82c-.52-.34-.78-.9-.78-1.68,0-.44.09-.8.26-1.06s.48-.57.94-.92c-.17-.11-.29-.26-.36-.45s-.12-.38-.12-.59c0-.14.03-.3.1-.46.07-.16.22-.44.46-.85-.79-.41-1.18-1.18-1.18-2.31,0-1.8,1.01-2.7,3.02-2.7.48,0,1,.07,1.58.2l2.36-.06v1.19l-1.38-.05c.16.19.28.39.36.61.07.22.11.51.11.86,0,.92-.25,1.58-.74,1.98-.49.4-1.26.6-2.3.6-.31,0-.56-.02-.76-.06-.17.39-.25.68-.25.85,0,.25.1.41.3.48.2.07.51.11.94.11h.54c.72.01,1.3.07,1.74.17.43.1.77.31,1.01.63.24.32.36.77.36,1.37,0,.91-.29,1.58-.88,2-.58.42-1.53.64-2.83.64-1.14,0-1.97-.17-2.49-.5ZM193.23,19.83c.32-.2.47-.54.47-1.03,0-.29-.06-.5-.18-.64-.12-.14-.3-.23-.53-.28-.24-.05-.59-.07-1.05-.09l-1.58-.09c-.28.22-.47.41-.57.59-.1.18-.15.39-.15.64,0,.44.15.76.45.94s.81.27,1.52.27c.78,0,1.32-.1,1.64-.3ZM192.53,13.65c.24-.24.36-.63.36-1.18s-.12-.92-.37-1.16c-.25-.24-.65-.36-1.19-.36s-.96.12-1.22.36c-.25.24-.38.63-.38,1.17s.13.93.38,1.16c.25.24.66.36,1.22.36s.96-.12,1.2-.36Z"/>
        <path class="cls-1" d="M196.61,9.96h1.43v.98c.92-.59,1.83-.97,2.73-1.15v1.46c-.4.08-.82.2-1.26.34-.43.14-.8.29-1.09.42l-.37.17v5.53h-1.44v-7.75Z"/>
        <path class="cls-1" d="M202.43,16.91c-.53-.65-.79-1.66-.79-3.05s.27-2.45.81-3.1c.54-.65,1.4-.98,2.59-.98s2.06.33,2.6.98c.53.66.8,1.69.8,3.09s-.26,2.39-.79,3.04c-.53.65-1.39.98-2.6.98s-2.08-.32-2.6-.97ZM206.19,16.36c.27-.18.47-.46.58-.85s.17-.94.17-1.64-.06-1.3-.18-1.71c-.12-.4-.32-.69-.59-.86-.27-.17-.65-.26-1.14-.26s-.87.09-1.15.26c-.28.17-.48.46-.6.87-.12.41-.18.97-.18,1.7s.06,1.24.17,1.64c.11.4.31.68.59.86.28.18.67.26,1.16.26s.88-.09,1.15-.26Z"/>
        <path class="cls-1" d="M211.09,17.5c-.36-.25-.62-.66-.76-1.21-.14-.55-.22-1.32-.22-2.29v-4.05h1.44v4.05c0,.71.04,1.25.11,1.6.07.36.21.61.41.75s.51.22.92.22c.34,0,.66-.04.97-.12.3-.08.63-.2.98-.36v-6.14h1.44v7.75h-1.44v-.51c-.43.25-.82.42-1.17.53-.35.1-.73.15-1.14.15-.67,0-1.19-.13-1.55-.38Z"/>
        <path class="cls-1" d="M218.53,9.96h1.43v.51c.4-.24.78-.41,1.12-.52.35-.11.72-.16,1.11-.16.97,0,1.68.32,2.13.97.45.65.67,1.67.67,3.06,0,.98-.11,1.77-.34,2.36s-.59,1.03-1.09,1.29c-.5.27-1.17.4-2.01.4-.46,0-.99-.05-1.58-.15v3.36h-1.44v-11.13ZM223.07,15.97c.31-.43.46-1.14.46-2.12s-.13-1.67-.4-2.11c-.27-.43-.69-.65-1.26-.65-.26,0-.54.04-.84.12-.3.08-.56.17-.79.27l-.26.14v4.85c.72.1,1.23.15,1.52.15.74,0,1.27-.22,1.57-.65Z"/>
        <path class="cls-1" d="M226.7,15.69h1.57v2.02h-1.57v-2.02Z"/>
        <path class="cls-1" d="M231.27,17.46c-.46-.28-.79-.71-.99-1.3-.2-.59-.3-1.36-.3-2.33,0-1.28.22-2.28.67-2.98.45-.71,1.26-1.06,2.44-1.06.3,0,.62.02.96.05.34.04.8.11,1.38.22l-.05,1.15c-.88-.08-1.5-.12-1.86-.12-.55,0-.97.08-1.27.25s-.51.44-.63.84c-.12.39-.18.95-.18,1.67s.06,1.25.18,1.63c.12.38.33.66.63.84.3.18.74.26,1.32.26l1.83-.14.05,1.18c-1.03.18-1.81.26-2.34.26-.76,0-1.38-.14-1.84-.42Z"/>
        <path class="cls-1" d="M237.48,16.91c-.53-.65-.79-1.66-.79-3.05s.27-2.45.81-3.1c.54-.65,1.4-.98,2.59-.98s2.06.33,2.6.98c.53.66.8,1.69.8,3.09s-.26,2.39-.79,3.04c-.53.65-1.39.98-2.6.98s-2.08-.32-2.6-.97ZM241.24,16.36c.27-.18.47-.46.58-.85s.17-.94.17-1.64-.06-1.3-.18-1.71c-.12-.4-.32-.69-.59-.86-.27-.17-.65-.26-1.14-.26s-.87.09-1.15.26c-.28.17-.48.46-.6.87-.12.41-.18.97-.18,1.7s.06,1.24.17,1.64c.11.4.31.68.59.86.28.18.67.26,1.16.26s.88-.09,1.15-.26Z"/>
        <path class="cls-1" d="M245.24,9.96h1.43v.51c.39-.23.76-.4,1.12-.51.35-.11.71-.17,1.09-.17.4,0,.77.06,1.12.19s.61.32.81.58c.41-.23.87-.41,1.36-.56s.99-.22,1.5-.22c.64,0,1.14.13,1.5.39.36.26.62.66.77,1.21.15.55.23,1.28.23,2.2v4.12h-1.44v-4.09c0-.65-.04-1.15-.12-1.51-.08-.36-.22-.62-.42-.78-.2-.16-.5-.24-.89-.24-.29,0-.59.03-.9.1-.31.07-.58.15-.82.26l-.28.12c.11.44.17,1.15.17,2.11v4.03h-1.46v-4c0-.69-.04-1.22-.11-1.59-.07-.37-.21-.63-.41-.79-.2-.16-.5-.24-.89-.24-.29,0-.59.04-.89.11-.31.07-.56.15-.77.25l-.25.12v6.14h-1.44v-7.75Z"/>
        <path class="cls-1" d="M258.14,15.69h1.57v2.02h-1.57v-2.02Z"/>
        <path class="cls-1" d="M261.83,17.26c-.38-.41-.57-1.01-.57-1.78s.2-1.33.59-1.68,1.02-.58,1.88-.66l2.2-.2v-.6c0-.45-.1-.78-.29-.98-.2-.2-.49-.3-.87-.3-.87,0-1.87.06-3.01.19l-.05-1.05c1.1-.26,2.11-.39,3.05-.39s1.57.2,1.98.61c.41.41.62,1.05.62,1.93v3.74c.02.21.09.36.21.47s.31.18.57.23l-.05,1.12c-.44,0-.82-.05-1.13-.15-.31-.1-.58-.25-.82-.46-.88.4-1.76.6-2.63.6-.73,0-1.29-.21-1.67-.62ZM265.6,16.38l.33-.11v-2.28l-2.02.19c-.4.04-.7.16-.89.36-.19.2-.29.5-.29.89,0,.83.35,1.24,1.04,1.24.63,0,1.24-.1,1.83-.29Z"/>
        <path class="cls-1" d="M269.57,9.96h1.43v.98c.92-.59,1.83-.97,2.73-1.15v1.46c-.4.08-.82.2-1.26.34-.43.14-.8.29-1.09.42l-.37.17v5.53h-1.44v-7.75Z"/>
      </g>
      <g>
        <path class="cls-1" d="M0,7.04h3.97c1.1,0,1.9.22,2.43.67.52.44.78,1.15.78,2.12,0,.61-.1,1.1-.31,1.47-.21.37-.54.67-.99.91.54.21.94.51,1.2.91.26.4.39.94.39,1.61,0,1.98-1.12,2.98-3.35,2.98H0V7.04ZM3.97,11.66c.58,0,1.01-.14,1.29-.42s.42-.7.42-1.27-.14-.98-.43-1.25c-.29-.26-.74-.39-1.35-.39H1.49v3.33h2.48ZM4.06,16.41c.63,0,1.1-.13,1.43-.39.32-.26.48-.69.48-1.3,0-1.18-.66-1.77-1.97-1.77H1.49v3.46h2.57Z"/>
        <path class="cls-1" d="M9.52,7.04h4c1.18,0,2.06.27,2.64.82.58.55.88,1.38.88,2.5,0,1.57-.62,2.6-1.84,3.1l1.89,4.25h-1.63l-1.72-3.94h-2.73v3.94h-1.49V7.04ZM13.53,12.49c.65,0,1.14-.18,1.48-.53.33-.36.5-.88.5-1.56s-.17-1.18-.5-1.53c-.34-.35-.84-.53-1.5-.53h-2.51v4.15h2.53Z"/>
        <path class="cls-1" d="M24.49,15.21h-4.31l-.67,2.5h-1.47l2.76-10.67h3.07l2.76,10.67h-1.47l-.67-2.5ZM20.49,13.9h3.69l-1.44-5.6h-.81l-1.44,5.6Z"/>
        <path class="cls-1" d="M36.27,7.04v10.67h-2.6l-3.69-9.36h-.25v9.36h-1.49V7.04h2.65l3.61,9.36h.28V7.04h1.49Z"/>
        <path class="cls-1" d="M45.11,7.7c.6.43,1.01,1.01,1.23,1.74.22.73.33,1.63.33,2.71,0,1.32-.14,2.39-.42,3.2-.28.81-.72,1.41-1.32,1.79-.6.38-1.4.57-2.39.57h-3.74V7.04h3.74c1.12,0,1.97.22,2.57.65ZM44.54,15.38c.4-.69.6-1.75.6-3.2,0-.92-.09-1.66-.26-2.22-.17-.56-.44-.97-.82-1.22-.38-.26-.89-.39-1.53-.39h-2.25v8.06h2.25c.93,0,1.6-.34,2-1.03Z"/>
        <path class="cls-1" d="M48.77,7.04h1.49v10.67h-1.49V7.04Z"/>
        <path class="cls-1" d="M60.8,7.04v10.67h-2.6l-3.69-9.36h-.25v9.36h-1.49V7.04h2.65l3.61,9.36h.28V7.04h1.49Z"/>
        <path class="cls-1" d="M64.59,17.29c-.62-.39-1.05-.99-1.32-1.79-.26-.8-.39-1.85-.39-3.14s.13-2.34.4-3.13c.27-.8.71-1.39,1.31-1.78.6-.39,1.42-.58,2.44-.58.93,0,1.94.1,3.04.31l.54.11-.06,1.19c-1.27-.19-2.35-.28-3.24-.28-.81,0-1.42.15-1.83.44s-.69.74-.84,1.33c-.14.59-.22,1.42-.22,2.49s.08,1.83.24,2.41c.16.58.44,1.01.84,1.28.4.27.97.4,1.71.4s1.34-.05,1.92-.15v-2.91h-1.53v-1.32h3.01v5.33c-1.36.25-2.54.37-3.53.37-1.04,0-1.87-.2-2.49-.59Z"/>
      </g>
      <path class="cls-1" d="M79.67,13.61c.08-3.44,3.06-5.22,5.98-5.52-2.41-.57-3.6-1.89-3.57-3.84,0-2.68,2.46-4.25,6.03-4.25,2.57,0,4.28.92,4.28,2.52,0,.81-.65,1.41-1.71,1.57-.27-1.87-1.11-3.79-2.73-3.79-1.79,0-2.68,1.57-2.65,3.76.03,2.44,1.41,3.82,3.9,3.98l.19.46c-3.38-.08-6.01,1.71-6.09,5.11-.11,3.63,1.81,5.57,4.98,5.57,3.55,0,5.66-2.73,5.74-5.74.03-1.84-.43-3.68-2.03-3.68-1.16,0-1.68.97-1.68,2.08,0,.92.3,1.7.84,2.19-.33.16-.68.24-1.06.24-1.03,0-1.89-.49-1.92-1.76,0-1.62,1.65-2.38,3.19-3.36,1.92-1.19,2.87-2.16,2.87-3.54-.03-.73-.46-1.19-1.11-1.41.38-.49,1.08-.65,1.54-.65,1.08-.03,1.95.62,1.95,1.79s-.81,1.92-2.14,2.62c-.65.41-2.33,1.11-3.17,1.6.43-.08.84-.11,1.22-.11,2.76,0,4.19,1.79,4.19,3.98,0,3.9-4.3,6.03-8.5,6.03-5.17,0-8.66-1.76-8.55-5.87Z"/>
    </g>
  </g>
</svg>