<?xml version="1.0" encoding="UTF-8"?>
<svg id="Layer_2" data-name="Layer 2" xmlns="http://www.w3.org/2000/svg" viewBox="0 0 51.57 51.57">
  <g id="Capa_1" data-name="Capa 1">
    <g>
      <path class="cls-1" fill="#fff" d="M25.79,51.57C11.57,51.57,0,40.01,0,25.79S11.57,0,25.79,0s25.79,11.57,25.79,25.79-11.57,25.79-25.79,25.79M25.79,4.22C13.89,4.22,4.22,13.89,4.22,25.79s9.68,21.57,21.57,21.57,21.57-9.68,21.57-21.57S37.68,4.22,25.79,4.22"/>
      <path class="cls-1" fill="#fff" d="M14.12,17.15v16.71s-.16.67.52.67h3.08s.7.08.7-.65v-5.65s-.07-.46.46-.46h4.95s.38.11.38-.39v-3.21s.08-.44-.27-.44h-5.05s-.48.03-.48-.52v-1.81s0-.34.44-.34h5.05s.37.06.37-.54v-3.11s.13-.38-.35-.38h-9.66c-.07,0-.08,0-.11.02-.04.02-.03.09-.03.09"/>
      <path class="cls-1" fill="#fff" d="M27.04,17.01s-.34-.01-.34.34v3.5s.08.24.47.24h4.44s.75,0,.88.06c.23.11.19.59.18,1.2-.01.74.06,1.23-.16,1.3-.13.05-.88.02-.88.02h-4.46s-.47.01-.47.34v3.4s-.04.38.36.38h3.22s1.84-.1,1.84,1.8v4.39s-.09.58.42.58h3.76s.43.06.43-.58v-4.39s-.19-3.55-2.76-3.55c0,0,3.51-.48,3.51-3.98,0-2.5-1.58-5.06-4.83-5.06h-5.6Z"/>
    </g>
  </g>
</svg>